<svg width="1444" height="288" xmlns="http://www.w3.org/2000/svg" xmlns:xlink="http://www.w3.org/1999/xlink" xml:space="preserve" overflow="hidden"><defs><clipPath id="clip0"><rect x="0" y="0" width="1444" height="288"/></clipPath><linearGradient x1="0" y1="144" x2="1444" y2="144" gradientUnits="userSpaceOnUse" spreadMethod="reflect" id="fill1"><stop offset="0" stop-color="#8360C3"/><stop offset="0.5" stop-color="#588FAA"/><stop offset="1" stop-color="#2EBF91"/></linearGradient></defs><g clip-path="url(#clip0)"><path d="M0 272.112C0 280.886 7.11984 288 15.9037 288L1428.1 288C1436.88 288 1444 280.886 1444 272.112L1444 15.8879C1444 7.11459 1436.88 0 1428.1 0L15.9037 0C7.11984 0 0 7.11459 0 15.8879ZM80.6243 53.9994 54.053 53.9994 54.053 80.5445 69.2366 80.5445 144.395 162.707 207.913 93.1848 207.913 234.001 234.485 234.001 234.485 53.9994 207.913 53.9994 144.395 123.524ZM482.735 234.001C463.247 212.006 444.268 189.506 425.289 167.006L370.377 234.001 336.719 234.001 336.973 233.747 336.973 131.865 363.29 131.865 363.29 201.136 483.241 53.9994 517.656 53.9994 442.245 146.021 517.656 234.001ZM696.061 234.001 720.862 234.001 720.862 53.9994 694.29 53.9994 694.29 193.046 567.002 53.9994 540.43 53.9994 540.43 80.5445 555.615 80.5445ZM746.167 53.9994 772.739 53.9994 772.739 234.001 746.167 234.001ZM978.222 98.7489C978.222 73.9733 957.977 53.9994 933.176 53.9994L843.595 53.9994C818.541 53.9994 798.045 74.2243 798.045 99.2541L798.045 188.746C798.045 213.776 818.289 234.001 843.341 234.001L925.333 234.001 925.333 207.707 843.341 207.707C832.965 207.707 824.616 199.112 824.616 188.746L824.616 99.505C824.616 88.8887 832.965 80.5445 843.595 80.5445L933.176 80.5445C943.807 80.5445 951.904 88.6345 951.904 99.2537L978.222 99.2537ZM1108.8 131.865 1108.8 158.41 1030.35 158.41 1030.35 234.001 1003.78 234.001 1003.78 53.9994 1030.35 53.9994 1030.35 131.865ZM1157.64 234.001 1157.64 53.9994 1184.21 53.9994 1184.21 234.001ZM1286.45 234.001 1313.02 234.001 1313.02 53.9994 1209.52 53.9994 1209.52 80.5445 1286.45 80.5445ZM1389.95 53.9994 1339.59 53.9994 1339.59 80.5445 1389.95 80.5445ZM311.413 234.001 311.413 54.2537 259.79 54.2537 259.79 80.2935 285.347 80.2935 285.347 234.001ZM80.6243 234.001 80.6243 131.865 54.053 131.865 54.053 234.001ZM567.001 131.865 540.43 131.865 540.43 234.001 567.001 234.001ZM978.476 131.865 888.386 131.865 888.386 158.41 951.904 158.41 951.904 234.001 978.476 234.001Z" fill="url(#fill1)" fill-rule="evenodd"/></g></svg>